<svg xmlns="http://www.w3.org/2000/svg" version="1.1" x="0px" y="0px" viewBox="0 0 100 125"
     style="enable-background:new 0 0 100 100;" xml:space="preserve"><title>44 all</title>
  <path
    d="M87,24.5c0-6.6-5.3-12-12-12c-6.6,0-12,5.3-12,12c0,4.8,2.8,9.2,7.3,11v0.3c-0.1,0.5-0.1,1-0.2,1.5  c-0.4,3.4-0.7,6.1-2.4,8.5c-1.3,1.8-3.5,2.6-7.7,2.9c-2.5,0.2-5.1,0.3-7.7,0.4s-5.3,0.2-8.1,0.4C39.3,50,33.1,51,29.1,56L29,56.2  V29.8c6.2-2.2,9.5-9.1,7.3-15.3C34.1,8.2,27.3,5,21,7.2s-9.5,9.1-7.3,15.3c1.2,3.4,3.9,6.1,7.3,7.3v40.4c-6.2,2.2-9.5,9.1-7.3,15.3  c2.2,6.2,9.1,9.5,15.3,7.3c6.2-2.2,9.5-9.1,7.3-15.3c-0.8-2.3-2.3-4.2-4.2-5.7c0.4-4.4,1.1-8.2,3.2-10.9c2-2.5,5.9-3.1,9.5-3.4  c2.6-0.2,5.2-0.3,7.8-0.4s5.2-0.2,7.9-0.4c4.1-0.3,10.1-1.3,13.6-6.3c2.8-4.1,3.3-8.2,3.8-12.2c0.1-0.5,0.1-1,0.2-1.5l0.1-0.7h-0.1  C83.4,34.7,87,29.9,87,24.5z M25,14.5c2.2,0,4,1.8,4,4s-1.8,4-4,4s-4-1.8-4-4S22.8,14.5,25,14.5z M25,85.5c-2.2,0-4-1.8-4-4  s1.8-4,4-4s4,1.8,4,4S27.2,85.5,25,85.5z M75,28.5c-2.2,0-4-1.8-4-4s1.8-4,4-4s4,1.8,4,4S77.2,28.5,75,28.5z" /></svg>
